<?xml version="1.0" standalone="no"?>
<!DOCTYPE svg PUBLIC "-//W3C//DTD SVG 20010904//EN"
 "http://www.w3.org/TR/2001/REC-SVG-20010904/DTD/svg10.dtd">
<svg version="1.0" xmlns="http://www.w3.org/2000/svg"
 width="1280.000000pt" height="720.000000pt" viewBox="0 0 1280.000000 720.000000"
 preserveAspectRatio="xMidYMid meet">

<g transform="translate(0.000000,720.000000) scale(0.100000,-0.100000)"
fill="#000000" stroke="none">
<path d="M5450 4730 c-239 -20 -497 -110 -700 -245 -90 -60 -234 -196 -300
-284 -108 -143 -181 -334 -196 -511 -7 -86 9 -324 32 -455 60 -352 197 -665
418 -953 325 -424 816 -718 1351 -808 87 -15 162 -19 360 -19 273 0 350 10
588 76 388 106 771 351 1032 659 87 102 193 252 200 283 7 28 -28 77 -54 77
-10 0 -53 -16 -94 -35 -580 -264 -1261 -195 -1743 176 -74 57 -233 224 -282
296 -88 129 -147 269 -177 421 -24 118 -17 305 14 383 29 72 108 176 168 222
26 20 53 41 59 46 28 23 139 62 204 71 225 32 443 -83 556 -293 40 -74 43 -59
9 57 -47 162 -143 313 -290 454 -217 211 -483 331 -835 378 -111 14 -183 15
-320 4z"/>
</g>
</svg>
